<svg xmlns="http://www.w3.org/2000/svg" version="1.1" xmlns:xlink="http://www.w3.org/1999/xlink" xmlns:svgjs="http://svgjs.dev/svgjs" width="200" height="200" viewBox="0 0 2000 2250"><g transform="matrix(1,0,0,1,0,0)"><svg viewBox="0 0 320 360" data-background-color="#111111" preserveAspectRatio="xMidYMid meet" height="2250" width="2000" xmlns="http://www.w3.org/2000/svg" xmlns:xlink="http://www.w3.org/1999/xlink"><g id="tight-bounds" transform="matrix(1,0,0,1,0,0)"><svg viewBox="0 0 320 360" height="360" width="320"><g><svg></svg></g><g><svg viewBox="0 0 320 360" height="360" width="320"><g><path d="M160 340c88.258 0 160-71.742 160-160 0-88.258-71.742-160-160-160-88.258 0-160 71.742-160 160 0 88.258 71.742 160 160 160zM165.161 329.368v-10.323c72.671-2.684 131.2-61.213 133.884-133.884h10.323c-2.684 78.452-65.755 141.523-144.207 144.207zM165.161 30.632c78.452 2.684 141.523 65.755 144.207 144.207h-10.323c-2.684-72.671-61.213-131.2-133.884-133.884zM289.032 180c0 71.123-57.91 129.032-129.032 129.032-71.123 0-129.032-57.91-129.032-129.032 0-71.123 57.91-129.032 129.032-129.032 71.123 0 129.032 57.91 129.032 129.032zM154.839 30.632v10.323c-72.671 2.684-131.2 61.213-133.884 133.884h-10.323c2.684-78.452 65.755-141.523 144.207-144.207zM20.955 185.161c2.684 72.671 61.213 131.2 133.884 133.884v10.323c-78.452-2.684-141.523-65.755-144.207-144.207z" fill="#ffdc00" fill-rule="nonzero" stroke="none" stroke-width="1" stroke-linecap="butt" stroke-linejoin="miter" stroke-miterlimit="10" stroke-dasharray="" stroke-dashoffset="0" font-family="none" font-weight="none" font-size="none" text-anchor="none" style="mix-blend-mode: normal" data-fill-palette-color="tertiary"></path></g><g transform="matrix(1,0,0,1,64,115.63434104257425)"><svg viewBox="0 0 192 128.7313179148515" height="128.7313179148515" width="192"><g><svg viewBox="0 0 192 128.7313179148515" height="128.7313179148515" width="192"><g><svg viewBox="0 0 192 128.7313179148515" height="128.7313179148515" width="192"><g id="textblocktransform"><svg viewBox="0 0 192 128.7313179148515" height="128.7313179148515" width="192" id="textblock"><g><svg viewBox="0 0 192 128.7313179148515" height="128.7313179148515" width="192"><path d="M191.55 27.61C190.648 14.248 188.075 10.533 188.075 10.533 180.177-3.23 170.321-0.263 161.466 1.714 145.832 1.795 130.262 4.734 114.664 6.311 81.926 6.551 48.907 2.596 16.331 12.351 13.271 15.344-3.175 12.939 0.544 29.321 1.519 36.136 5.075 43.699 4.967 49.952 5.455 51.048 6.132 48.536 6.42 50.112 7.431 54.362 9.083 52.357 10.437 54.869 8.551 61.577 9.905 67.163 11.195 73.015 8.921 74.539 6.005 73.817 4.696 78.868 4.561 82.529 3.83 81.834 3.027 81.674 2.44 81.567 1.257 81.968 1.456 83.117 2.133 87.046-0.774 89.317 1.05 93.166-0.205 97.335 1.916 100.943 1.627 105.459 1.591 106.368 1.79 107.143 2.106 107.356 3.505 108.506 1.465 110.75 1.682 113.182 16.033 129.805 31.604 118.313 46.308 125.957 50.126 120.612 47.256 127.854 48.781 126.732 49.972 125.422 50.839 130.847 52.184 127.774 52.392 126.892 52.076 124.808 52.816 125.208 53.204 125.422 53.547 125.369 53.601 124.139 53.682 122.295 52.969 123.445 52.78 122.482 54.829 117.619 54.323 129.19 56.246 128.709 56.156 127.293 55.596 125.262 56.742 125.529 57.88 123.498 57.916 121.814 58.927 126.384 58.963 127.373 59.143 128.068 59.432 128.549 62.591 123.578 65.732 130.313 69.045 128.068 71.076 125.609 73.026 129.404 75.084 128.469 75.806 127.72 76.537 126.384 77.232 128.629 85.744 129.11 94.815 127.106 102.885 128.709 124.449 125.716 147.493 129.939 170.23 125.983 175.592 124.46 181.161 122.295 186.387 120.558 186.387 120.558 190.621 115.801 190.621 94.422S191.523 75.715 191.659 58.691C191.794 41.668 192.426 40.973 191.523 27.61Z" opacity="1" fill="#ffdc00" data-fill-palette-color="tertiary"></path><g transform="matrix(1,0,0,1,27.072000000000003,19.1)"><svg width="137.856" viewBox="3.760004347225 -36.483333333333334 56.239995652775 36.93333333333334" height="90.53131791485151" data-palette-color="#111111"><path d="M10.9-3.15L10.9-3.15Q10.9-1.7 9.88-0.68 8.85 0.35 7.4 0.35 5.95 0.35 4.93-0.68 3.9-1.7 3.9-3.15 3.9-4.6 3.8-17.7 3.7-30.8 3.85-32.25L3.85-32.25Q3.9-33.7 4.95-34.68 6-35.65 7.45-35.65L7.45-35.65Q7.7-35.65 7.95-35.6L7.95-35.6Q8.05-35.6 8.2-35.65L8.2-35.65Q14.3-36.65 17.75-36.45L17.75-36.45Q24.55-36 28.05-31.7L28.05-31.7Q30.75-28.4 30.8-24.65 30.85-20.9 28.45-18.35L28.45-18.35Q26.5-16.2 23.55-15 20.6-13.8 17.55-13.65L17.55-13.65Q16.55-13.6 15.4-13.65 14.25-13.7 12.63-13.85 11-14 10.8-14.05L10.8-14.05Q10.9-6.5 10.9-3.15L10.9-3.15ZM17.25-20.65L17.25-20.65Q19.1-20.7 20.75-21.38 22.4-22.05 23.2-23L23.2-23Q23.6-23.45 23.75-23.83 23.9-24.2 23.68-25.25 23.45-26.3 22.65-27.3L22.65-27.3Q21.05-29.25 17.3-29.45L17.3-29.45Q14.8-29.6 10.8-29L10.8-29Q10.75-25.65 10.75-21.05L10.75-21.05 10.8-21.05 13.15-20.8Q14.45-20.7 15.4-20.65 16.35-20.6 17.25-20.65L17.25-20.65ZM46.75 0.45L46.75 0.45Q42.9 0.55 39.8-0.75 36.7-2.05 34.9-4.55 33.1-7.05 33.1-10.35L33.1-10.35Q33.1-12.35 34.25-13.48 35.4-14.6 36.85-14.6L36.85-14.6Q38.3-14.6 39.2-13.58 40.1-12.55 40.1-11.3L40.1-11.3Q40.1-10.05 40.25-9.22 40.4-8.4 41-7.7L41-7.7Q42.15-6.3 46.85-6.3L46.85-6.3Q49.4-6.3 51.2-7.35 53-8.4 53-10.35L53-10.35Q53-11.65 50.9-12.85L50.9-12.85Q49.45-13.65 44.45-15.35L44.45-15.35Q39-17.15 36.25-19.53 33.5-21.9 33.5-26L33.5-26Q33.5-29.15 35.3-31.5 37.1-33.85 40.02-35.1 42.95-36.35 46.25-36.35L46.25-36.35Q49.65-36.45 52.8-35.25 55.95-34.05 57.87-31.83 59.8-29.6 59.8-26.8L59.8-26.8Q59.8-25.3 58.7-24.23 57.6-23.15 56.15-23.15L56.15-23.15Q55.15-23.15 54.2-23.75 53.25-24.35 53-25.25L53-25.25Q52.7-26.45 52.12-27.1 51.55-27.75 50.6-28.3L50.6-28.3Q49.35-29 48.35-29.3 47.35-29.6 45.5-29.6L45.5-29.6Q43.3-29.6 41.87-28.78 40.45-27.95 40.45-26.65L40.45-26.65Q40.45-25 42.07-23.95 43.7-22.9 46.65-21.95L46.65-21.95Q52.35-20.05 54.25-19L54.25-19Q57.4-17.25 58.7-15.3 60-13.35 60-10.4L60-10.4Q60-7.25 58.1-4.78 56.2-2.3 53.12-0.93 50.05 0.45 46.75 0.45L46.75 0.45Z" opacity="1" transform="matrix(1,0,0,1,0,0)" fill="#111111" class="undefined-text-0" data-fill-palette-color="quaternary" id="text-0"></path></svg></g></svg></g></svg></g></svg></g><g></g></svg></g></svg></g></svg></g><defs></defs></svg><rect width="320" height="360" fill="none" stroke="none" visibility="hidden"></rect></g></svg></g></svg>